<?xml version="1.0" encoding="UTF-8" standalone="no"?>
<svg
   xmlns:dc="http://purl.org/dc/elements/1.1/"
   xmlns:cc="http://creativecommons.org/ns#"
   xmlns:rdf="http://www.w3.org/1999/02/22-rdf-syntax-ns#"
   xmlns:svg="http://www.w3.org/2000/svg"
   xmlns="http://www.w3.org/2000/svg"
   xmlns:xlink="http://www.w3.org/1999/xlink"
   xmlns:sodipodi="http://sodipodi.sourceforge.net/DTD/sodipodi-0.dtd"
   xmlns:inkscape="http://www.inkscape.org/namespaces/inkscape"
   inkscape:export-ydpi="351.39703"
   inkscape:export-xdpi="351.39703"
   inkscape:export-filename="/Users/ncorti/kotlin-at-fosdem.png"
   inkscape:version="1.0 (4035a4f, 2020-05-01)"
   sodipodi:docname="kotlin-at-fosdem.svg"
   id="svg870"
   version="1.1"
   height="540.92657"
   width="546.26038"
   viewBox="0 0 147.4903 145.93341"
   data-name="Layer 1">
  <metadata
     id="metadata874">
    <rdf:RDF>
      <cc:Work
         rdf:about="">
        <dc:format>image/svg+xml</dc:format>
        <dc:type
           rdf:resource="http://purl.org/dc/dcmitype/StillImage" />
        <dc:title>logo_Kotlin</dc:title>
      </cc:Work>
    </rdf:RDF>
  </metadata>
  <sodipodi:namedview
     inkscape:current-layer="svg870"
     inkscape:window-maximized="1"
     inkscape:window-y="23"
     inkscape:window-x="0"
     inkscape:cy="285.15296"
     inkscape:cx="301.90225"
     inkscape:zoom="0.96825622"
     fit-margin-bottom="0"
     fit-margin-right="0"
     fit-margin-left="0"
     fit-margin-top="0"
     showgrid="false"
     id="namedview872"
     inkscape:window-height="1035"
     inkscape:window-width="1920"
     inkscape:pageshadow="2"
     inkscape:pageopacity="0"
     guidetolerance="10"
     gridtolerance="10"
     objecttolerance="10"
     borderopacity="1"
     bordercolor="#666666"
     pagecolor="#ffffff" />
  <defs
     id="defs852">
    <linearGradient
       gradientTransform="translate(236.16793)"
       gradientUnits="userSpaceOnUse"
       y2="4.415"
       x2="107.837"
       y1="136.073"
       x1="-23.82"
       id="b">
      <stop
         id="stop833"
         stop-color="#c757bc"
         offset=".108" />
      <stop
         id="stop835"
         stop-color="#cd5ca9"
         offset=".173" />
      <stop
         id="stop837"
         stop-color="#e8744f"
         offset=".492" />
      <stop
         id="stop839"
         stop-color="#f88316"
         offset=".716" />
      <stop
         id="stop841"
         stop-color="#ff8900"
         offset=".823" />
    </linearGradient>
    <linearGradient
       gradientUnits="userSpaceOnUse"
       y2="108.83"
       x2="109.326"
       y1="173.00301"
       x1="45.153999"
       id="a">
      <stop
         id="stop844"
         stop-color="#00afff"
         offset=".296" />
      <stop
         id="stop846"
         stop-color="#5282ff"
         offset=".694" />
      <stop
         id="stop848"
         stop-color="#945dff"
         offset="1" />
    </linearGradient>
    <linearGradient
       gradientTransform="translate(236.16793)"
       xlink:href="#a"
       y2="0.026000001"
       x2="43.319"
       y1="45.043999"
       x1="-1.699"
       id="c" />
  </defs>
  <title
     id="title854">logo_Kotlin</title>
  <path
     style="fill:#ab1b93;fill-opacity:1;stroke:#000000;stroke-width:2.04094;stroke-miterlimit:4;stroke-dasharray:none;stroke-opacity:1"
     id="path864"
     d="M 73.49557,2.0404724 2.46057,76.742472 v 66.780998 l 70.932,-71.056998 70.551,-70.4259996 z"
     fill="url(#b)" />
  <path
     style="fill:#ffffff;fill-opacity:1;stroke:#000000;stroke-width:2.04094;stroke-miterlimit:4;stroke-dasharray:none;stroke-opacity:1"
     id="path866"
     d="m 2.46057,143.52347 70.932,-71.056998 70.551,71.056998 z"
     fill="url(#a)"
     data-name="&lt;Path&gt;" />
  <path
     style="fill:#ffffff;fill-opacity:1;stroke:#000000;stroke-width:2.04094;stroke-miterlimit:4;stroke-dasharray:none;stroke-opacity:1"
     id="path868"
     d="m 2.46057,2.0404724 h 71.035 L 2.46057,76.742472 Z"
     fill="url(#c)" />
  <g
     id="g1496"
     style="fill:#ffffff;fill-opacity:1"
     transform="matrix(0.19868866,-0.19868866,-0.19868866,-0.19868866,52.60989,152.766)">
    <g
       style="fill:#ffffff;fill-opacity:1"
       id="g1474"
       transform="translate(109.942,251.353)">
      <path
         style="fill:#ffffff;fill-opacity:1"
         id="path1472"
         d="m 0,0 0.094,-7.306 v -5.901 h 20.139 c 0.498,-1.873 0.748,-3.92 0.748,-6.136 0,-2.218 -0.25,-4.261 -0.748,-6.135 H 0.094 v -25.759 c -1.987,-0.374 -4.469,-0.562 -7.447,-0.562 -2.98,0 -5.462,0.188 -7.447,0.562 v 63.415 l 0.655,0.562 h 40.091 c 0.375,-1.562 0.563,-3.513 0.563,-5.855 0,-2.342 -0.643,-4.074 -1.926,-5.198 C 23.298,0.563 21.278,0 18.521,0 H 0" />
    </g>
    <g
       style="fill:#ffffff;fill-opacity:1"
       id="g1478"
       transform="translate(158.276,217.539)">
      <path
         style="fill:#ffffff;fill-opacity:1"
         id="path1476"
         d="m 0,0 c 1.687,-4.872 5.089,-7.307 10.21,-7.307 2.561,0 4.637,0.64 6.229,1.92 1.593,1.279 2.841,2.904 3.748,4.871 0.904,1.967 1.513,4.168 1.826,6.603 0.312,2.436 0.468,4.84 0.468,7.213 0,2.186 -0.08,4.621 -0.234,7.307 -0.156,2.684 -0.609,5.199 -1.358,7.541 -0.749,2.342 -1.937,4.309 -3.56,5.9 -1.625,1.593 -3.997,2.389 -7.119,2.389 -2.997,0 -5.292,-0.766 -6.885,-2.295 -1.592,-1.531 -2.779,-3.419 -3.558,-5.667 -0.783,-2.248 -1.266,-4.637 -1.454,-7.165 -0.186,-2.529 -0.28,-4.764 -0.28,-6.698 0,-2.873 0.141,-5.433 0.421,-7.681 C -1.265,4.683 -0.749,2.373 0,0 Z m -7.587,-12.927 c -6.684,5.557 -10.023,14.706 -10.023,27.445 0,5.495 0.64,10.318 1.921,14.472 1.279,4.152 3.122,7.635 5.526,10.445 2.403,2.81 5.323,4.932 8.758,6.369 3.433,1.436 7.306,2.155 11.615,2.155 4.309,0 8.196,-0.719 11.662,-2.155 3.466,-1.437 6.4,-3.576 8.805,-6.416 2.404,-2.843 4.246,-6.34 5.527,-10.492 1.279,-4.152 1.92,-8.945 1.92,-14.378 0,-5.432 -0.641,-10.225 -1.92,-14.378 -1.281,-4.154 -3.123,-7.635 -5.527,-10.444 -2.405,-2.811 -5.339,-4.935 -8.805,-6.37 -3.466,-1.436 -7.353,-2.155 -11.662,-2.155 -7.119,0 -13.053,1.967 -17.797,5.902" />
    </g>
    <g
       style="fill:#ffffff;fill-opacity:1"
       id="g1482"
       transform="translate(201.177,205.642)">
      <path
         style="fill:#ffffff;fill-opacity:1"
         id="path1480"
         d="m 0,0 c 0.187,2.061 0.827,4.121 1.92,6.183 1.092,2.06 2.389,3.747 3.887,5.057 6.682,-4.059 13.021,-6.088 19.016,-6.088 2.623,0 4.543,0.592 5.759,1.78 1.219,1.185 1.828,2.654 1.828,4.402 0,2.936 -1.967,5.246 -5.902,6.932 l -11.053,4.683 c -4.308,1.936 -7.619,4.262 -9.929,6.979 -2.311,2.717 -3.465,6.166 -3.465,10.35 0,2.872 0.576,5.496 1.732,7.869 1.155,2.373 2.778,4.433 4.871,6.182 2.092,1.747 4.575,3.106 7.448,4.075 2.871,0.967 6.055,1.452 9.553,1.452 6.994,0 14.05,-1.78 21.169,-5.34 -0.312,-4.809 -1.998,-8.556 -5.057,-11.241 -6.37,3.06 -11.99,4.59 -16.861,4.59 -2.498,0 -4.372,-0.561 -5.621,-1.685 -1.25,-1.124 -1.873,-2.405 -1.873,-3.84 0,-2.436 1.842,-4.403 5.528,-5.902 L 34.19,31.66 c 4.744,-1.998 8.289,-4.558 10.631,-7.679 2.341,-3.124 3.512,-6.746 3.512,-10.867 0,-2.936 -0.531,-5.62 -1.592,-8.055 C 45.678,2.623 44.102,0.516 42.01,-1.264 39.918,-3.044 37.311,-4.434 34.19,-5.433 31.066,-6.431 27.412,-6.932 23.23,-6.932 15.112,-6.932 7.368,-4.622 0,0" />
    </g>
    <g
       style="fill:#ffffff;fill-opacity:1"
       id="g1486"
       transform="translate(283.232,211.263)">
      <path
         style="fill:#ffffff;fill-opacity:1"
         id="path1484"
         d="m 0,0 c 8.242,0 12.363,6.932 12.363,20.794 0,13.925 -4.121,20.889 -12.363,20.889 -2,0 -3.764,0 -5.293,0 -1.531,0 -2.857,0.03 -3.98,0.094 V -0.094 C -8.15,-0.033 -6.824,0 -5.293,0 -3.764,0 -2,0 0,0 Z m 17.234,-7.025 c -1.999,-1.625 -4.621,-2.811 -7.868,-3.561 -3.247,-0.749 -6.838,-1.123 -10.772,-1.123 -1.936,0 -4.731,0.031 -8.383,0.094 -3.653,0.062 -8.229,0.156 -13.723,0.28 l -0.656,0.655 v 63.042 l 0.656,0.655 c 3.621,0.124 7.384,0.218 11.287,0.281 3.903,0.062 8.009,0.094 12.318,0.094 5.307,0 9.741,-0.843 13.302,-2.53 3.558,-1.686 6.4,-3.997 8.523,-6.931 2.122,-2.937 3.622,-6.386 4.497,-10.351 0.873,-3.967 1.311,-8.228 1.311,-12.786 0,-6.245 -0.719,-11.647 -2.155,-16.204 -1.437,-4.56 -4.215,-8.432 -8.337,-11.615" />
    </g>
    <g
       style="fill:#ffffff;fill-opacity:1"
       id="g1490"
       transform="translate(336.341,219.037)">
      <path
         style="fill:#ffffff;fill-opacity:1"
         id="path1488"
         d="m 0,0 -0.093,-6.745 v -0.093 c 2.863,0.125 5.167,0.187 6.909,0.187 h 21.66 c 0,-2.31 -0.094,-4.09 -0.281,-5.339 -0.749,-4.809 -3.934,-7.213 -9.554,-7.213 H -6.276 c -2.685,0 -4.793,0.781 -6.322,2.342 -1.531,1.561 -2.295,3.685 -2.295,6.37 V 44.4 l 0.655,0.656 h 40.372 c 0.375,-1.812 0.563,-3.779 0.563,-5.902 0,-2.123 -0.437,-4.341 -1.309,-6.65 H -0.093 L 0,25.759 v -6.556 c 1.617,0.061 3.73,0.093 6.34,0.093 h 14.268 c 0.561,-1.749 0.843,-3.747 0.843,-5.995 0,-2.248 -0.282,-4.309 -0.843,-6.182 L 0,7.119 V 0" />
    </g>
    <g
       style="fill:#ffffff;fill-opacity:1"
       id="g1494"
       transform="translate(373.248,200.303)">
      <path
         style="fill:#ffffff;fill-opacity:1"
         id="path1492"
         d="m 0,0 4.964,63.697 c 2.747,0.498 5.995,0.748 9.742,0.748 3.746,0 7.025,-0.25 9.835,-0.748 l 5.526,-22.95 C 32.253,30.38 33.407,24.73 33.533,23.792 h 0.656 c 0.249,1.561 1.405,7.213 3.466,16.955 l 5.62,22.95 c 2.747,0.498 5.995,0.748 9.741,0.748 3.747,0 7.026,-0.25 9.836,-0.748 L 67.816,0 c -1.935,-0.499 -4.324,-0.749 -7.165,-0.749 -2.843,0 -5.168,0.156 -6.978,0.468 l -1.499,26.04 c -0.438,10.365 -0.688,17.578 -0.75,21.639 H 50.862 L 41.589,9.274 C 39.341,8.899 36.765,8.712 33.861,8.712 c -2.903,0 -5.479,0.187 -7.728,0.562 l -9.179,38.124 h -0.656 c 0,-5.559 -0.25,-12.772 -0.749,-21.639 L 14.143,-0.281 C 12.332,-0.593 10.006,-0.749 7.165,-0.749 4.323,-0.749 1.934,-0.499 0,0" />
    </g>
  </g>
</svg>
